<?xml version="1.0" encoding="utf-8"?>
<svg xmlns="http://www.w3.org/2000/svg" xmlns:xlink="http://www.w3.org/1999/xlink" style="margin: auto; background: rgb(255, 255, 255); display: block; shape-rendering: auto; animation-play-state: running; animation-delay: 0s;" width="89px" height="89px" viewBox="0 0 100 100" preserveAspectRatio="xMidYMid">
<g transform="translate(50 50)" style="animation-play-state: running; animation-delay: 0s;">
<g style="animation-play-state: running; animation-delay: 0s;">
<animateTransform attributeName="transform" type="rotate" values="0;120" keyTimes="0;1" dur="0.5s" repeatCount="indefinite" style="animation-play-state: running; animation-delay: 0s;"></animateTransform><path d="M11.258330249197702 -6.5 L45.2583302491977 -6.5 L45.2583302491977 6.5 L11.258330249197702 6.5 A13 13 0 0 1 3.682600283471187e-15 13 L3.682600283471187e-15 13 L-16.99999999999999 42.444863728670924 L-28.25833024919769 35.944863728670924 L-11.2583302491977 6.500000000000004 A13 13 0 0 1 -11.258330249197707 -6.499999999999992 L-11.258330249197707 -6.499999999999992 L-28.25833024919772 -35.944863728670896 L-17.000000000000014 -42.4448637286709 L-2.3880612583373385e-15 -13 A13 13 0 0 1 11.258330249197698 -6.500000000000005 M0 -8A8 8 0 1 0 0 8 A8 8 0 1 0 0 -8" fill="#414040" style="animation-play-state: running; animation-delay: 0s;"></path></g></g>
<!-- [ldio] generated by https://loading.io/ --></svg>